# xmcd
#
# Track frame offsets: 
#        150
#        14996
#        28881
#        43867
#        64801
#        75240
#        87894
#        100336
#        112996
#        121425
#        132997
#        149924
#        164065
#        174984
#        189561
#        202751
#        215325
#        236295
#        263476
#
# Disc length: 3711 seconds
#
# Revision: 2
# Processed by: cddbd v1.5.2PL0 Copyright (c) Steve Scherf et al.
# Submitted via: ExactAudioCopy v0.99pb4
#
DISCID=0f0e7d13
DTITLE=Dr. John - Voodoo Hex
DYEAR=2008
DGENRE=Cleopatra 2197
TTITLE0=Tipitina
TTITLE1=She's Just A Square
TTITLE2=Zu Zu Man
TTITLE3=Mean Cheatin' Woman
TTITLE4=One Night Late
TTITLE5=In The Night
TTITLE6=Did She Mention My Name
TTITLE7=Grass Looks Greener Yonder
TTITLE8=New Orleans
TTITLE9=Bald Head
TTITLE10=Time Had Come
TTITLE11=Loser For You Baby
TTITLE12=Ear Is On Strike
TTITLE13=Little Closer To My Home
TTITLE14=I Pulled The Cover Off You Two Lovers
TTITLE15=Go Ahead On
TTITLE16=Just Like A Mirror
TTITLE17=Bring Your Love
TTITLE18=Make Your Own
EXTD=
EXTT0=
EXTT1=
EXTT2=
EXTT3=
EXTT4=
EXTT5=
EXTT6=
EXTT7=
EXTT8=
EXTT9=
EXTT10=
EXTT11=
EXTT12=
EXTT13=
EXTT14=
EXTT15=
EXTT16=
EXTT17=
EXTT18=
PLAYORDER=
